# xmcd
#
# Track frame offsets: 
#        150
#        24027
#        46375
#        81004
#        101356
#        121450
#        138927
#        160956
#        179623
#        180963
#        221321
#        246110
#        281956
#        301698
#
# Disc length: 4055 seconds
#
# Revision: 0
# Processed by: cddbd v1.5.2PL0 Copyright (c) Steve Scherf et al.
# Submitted via: ExactAudioCopy v0.95b4
#
DISCID=b00fd50e
DTITLE=Fillmore Slim - The Legend Of Fillmore Slim
DYEAR=2006
DGENRE=Blues
TTITLE0=The Legend Of Fillmore Slim
TTITLE1=Trapped By The Devil
TTITLE2=Nosey Woman
TTITLE3=Love For The Third Time
TTITLE4=Hey Little Brother
TTITLE5=Watch Yo' Self
TTITLE6=Jack You Up
TTITLE7=My Friend Blue
TTITLE8=Vegetable Man Intro
TTITLE9=Vegetable Man
TTITLE10=She Don't Love Me
TTITLE11=Blues From The Heart
TTITLE12=Tired Of My Old Lady
TTITLE13=Legend Of Filmore Slim Intro
EXTD=
EXTT0=
EXTT1=
EXTT2=
EXTT3=
EXTT4=
EXTT5=
EXTT6=
EXTT7=
EXTT8=
EXTT9=
EXTT10=
EXTT11=
EXTT12=
EXTT13=
PLAYORDER=
